<svg width="14" height="13" viewBox="0 0 14 13" fill="none" xmlns="http://www.w3.org/2000/svg">
<path d="M1.87214 2.58044L1.98692 1.47933C2.03552 1.01309 2.45216 0.671565 2.91613 0.717635L12.5659 1.62121C13.0326 1.66503 13.3706 2.07742 13.3198 2.54095L12.3147 12.1831C12.2661 12.6494 11.8495 12.9909 11.3855 12.9448L10.2833 12.8413C9.8116 12.797 9.47236 12.372 9.53141 11.9018L10.2812 6.07964L2.40351 12.5372C2.03895 12.836 1.5077 12.7861 1.21191 12.4253L0.500229 11.5571C0.204438 11.1963 0.25976 10.6656 0.624316 10.3667L8.502 3.90917L2.64593 3.50205C2.17048 3.46992 1.82028 3.05389 1.87214 2.58044Z" fill="#BC4749"/>
</svg>
